<svg width="1965" height="288" viewBox="0 0 1965 288" fill="none" xmlns="http://www.w3.org/2000/svg">
<path d="M411.416 215H465.016L430.616 167C448.816 159.2 460.016 143.4 460.016 124.4C460.016 97 437.216 75 404.016 75H339.216V215H383.816V172.2H388.416L411.416 215ZM400.416 110C411.216 110 418.016 117.6 418.016 125.2C418.016 132.4 411.216 139.8 400.416 139.8H383.816V110H400.416ZM567.322 162C567.322 127.2 543.722 111 516.322 111C488.522 111 462.922 128.8 462.922 162C462.922 196.2 485.122 216.8 522.522 216.8C527.522 216.8 541.322 216.8 560.922 211.2V179.2C540.922 186 533.722 186.6 527.522 186.6C514.522 186.6 507.522 184 504.522 175.6H567.322V162ZM516.722 138.4C524.322 138.4 528.922 142.4 530.522 151.4H503.522C505.322 142.4 509.722 138.4 516.722 138.4ZM712.873 111C698.273 111 688.673 117.8 680.473 130.4C676.673 118.2 666.073 111 650.473 111C636.873 111 627.473 116.8 619.673 127.8V113H576.073V215H619.673V155.2C622.673 151.6 625.673 149.8 630.073 149.8C635.873 149.8 638.473 153 638.473 159.4V215H682.073V155.4C685.273 151.6 688.273 149.8 692.273 149.8C698.273 149.8 700.873 153 700.873 159.4V215H744.473V141C744.473 122.6 732.473 111 712.873 111ZM809.961 217C842.361 217 866.761 193.6 866.761 162.4C866.761 133 842.361 111.2 809.961 111.2C777.561 111.2 752.961 133 752.961 162.4C752.961 193.6 777.561 217 809.961 217ZM809.961 182.6C801.561 182.6 795.561 175.4 795.561 163.4C795.561 152.4 801.561 145.6 809.961 145.6C818.361 145.6 824.161 152.4 824.161 163.4C824.161 175.4 818.361 182.6 809.961 182.6ZM952.273 146.4V113H928.473V85.8H884.873V113H872.073V146.4H884.873V176.6C884.873 201.6 898.873 217 928.273 217C937.873 217 942.473 216.6 949.873 214V177.2C943.673 179.4 938.673 179.8 936.673 179.8C929.673 179.8 928.473 177 928.473 167.8V146.4H952.273ZM1062.44 162C1062.44 127.2 1038.84 111 1011.44 111C983.639 111 958.039 128.8 958.039 162C958.039 196.2 980.239 216.8 1017.64 216.8C1022.64 216.8 1036.44 216.8 1056.04 211.2V179.2C1036.04 186 1028.84 186.6 1022.64 186.6C1009.64 186.6 1002.64 184 999.639 175.6H1062.44V162ZM1011.84 138.4C1019.44 138.4 1024.04 142.4 1025.64 151.4H998.639C1000.44 142.4 1004.84 138.4 1011.84 138.4ZM1145.79 215H1199.39L1164.99 167C1183.19 159.2 1194.39 143.4 1194.39 124.4C1194.39 97 1171.59 75 1138.39 75H1073.59V215H1118.19V172.2H1122.79L1145.79 215ZM1134.79 110C1145.59 110 1152.39 117.6 1152.39 125.2C1152.39 132.4 1145.59 139.8 1134.79 139.8H1118.19V110H1134.79ZM1301.7 162C1301.7 127.2 1278.1 111 1250.7 111C1222.9 111 1197.3 128.8 1197.3 162C1197.3 196.2 1219.5 216.8 1256.9 216.8C1261.9 216.8 1275.7 216.8 1295.3 211.2V179.2C1275.3 186 1268.1 186.6 1261.9 186.6C1248.9 186.6 1241.9 184 1238.9 175.6H1301.7V162ZM1251.1 138.4C1258.7 138.4 1263.3 142.4 1264.9 151.4H1237.9C1239.7 142.4 1244.1 138.4 1251.1 138.4ZM1382.85 111.2C1370.45 111.2 1360.85 116 1354.05 123.8V113H1310.45V249H1354.05V204.2C1360.85 212.2 1370.45 217 1382.85 217C1408.85 217 1424.25 194.2 1424.25 164C1424.25 133.8 1408.85 111.2 1382.85 111.2ZM1367.25 181.4C1361.25 181.4 1357.05 178.6 1354.05 175.2V152.6C1357.05 149.4 1361.25 146.8 1367.05 146.8C1375.85 146.8 1382.05 154.2 1382.05 164.2C1382.05 174.4 1375.85 181.4 1367.25 181.4ZM1540.03 217C1548.23 217 1558.03 215.4 1567.43 212V174.6C1557.63 178.8 1554.23 181.4 1543.63 181.4C1534.03 181.4 1525.83 173.6 1525.83 163.8C1525.83 153.8 1534.03 146.8 1543.23 146.8C1554.23 146.8 1557.63 148.8 1567.43 153.4V114.6C1558.03 112.4 1548.23 111.2 1539.63 111.2C1509.43 111.2 1483.43 130.8 1483.43 163.8C1483.43 197.6 1509.63 217 1540.03 217ZM1634.57 217C1666.97 217 1691.37 193.6 1691.37 162.4C1691.37 133 1666.97 111.2 1634.57 111.2C1602.17 111.2 1577.57 133 1577.57 162.4C1577.57 193.6 1602.17 217 1634.57 217ZM1634.57 182.6C1626.17 182.6 1620.17 175.4 1620.17 163.4C1620.17 152.4 1626.17 145.6 1634.57 145.6C1642.97 145.6 1648.77 152.4 1648.77 163.4C1648.77 175.4 1642.97 182.6 1634.57 182.6ZM1836.9 111C1822.3 111 1812.7 117.8 1804.5 130.4C1800.7 118.2 1790.1 111 1774.5 111C1760.9 111 1751.5 116.8 1743.7 127.8V113H1700.1V215H1743.7V155.2C1746.7 151.6 1749.7 149.8 1754.1 149.8C1759.9 149.8 1762.5 153 1762.5 159.4V215H1806.1V155.4C1809.3 151.6 1812.3 149.8 1816.3 149.8C1822.3 149.8 1824.9 153 1824.9 159.4V215H1868.5V141C1868.5 122.6 1856.5 111 1836.9 111Z" fill="black"/>
<path d="M1453.9 169.8C1440.3 169.8 1430.1 180.2 1430.1 193.6C1430.1 207 1440.3 217 1453.9 217C1467.7 217 1477.9 207 1477.9 193.6C1477.9 180.2 1467.7 169.8 1453.9 169.8Z" fill="#004FBE"/>
<path d="M126.32 0C75.8119 0 33.6855 40.6863 33.6855 92.6347C33.6855 112.398 39.6243 130.021 51.0217 146.535L119.231 252.969C122.54 258.143 130.107 258.133 133.409 252.969L201.915 146.172C213.067 130.407 218.955 111.895 218.955 92.6347C218.955 41.5559 177.399 0 126.32 0ZM126.32 134.741C103.104 134.741 84.2135 115.851 84.2135 92.6347C84.2135 69.4182 103.104 50.528 126.32 50.528C149.537 50.528 168.427 69.4182 168.427 92.6347C168.427 115.851 149.537 134.741 126.32 134.741Z" fill="black"/>
<path d="M192.155 193.52L149.75 259.816C138.773 276.93 113.805 276.873 102.882 259.833L60.4079 193.537C23.0374 202.177 0 218.006 0 236.92C0 269.742 65.0846 287.448 126.32 287.448C187.555 287.448 252.64 269.742 252.64 236.92C252.64 217.992 229.571 202.155 192.155 193.52Z" fill="#004FBE"/>
</svg>
